<svg xmlns="http://www.w3.org/2000/svg" viewBox="0 0 1024 1024" role="img" aria-label="Shakespeare icon">
  <defs>
    <linearGradient id="bg" x1="128" y1="96" x2="896" y2="928" gradientUnits="userSpaceOnUse">
      <stop offset="0" stop-color="#17211d"/>
      <stop offset="1" stop-color="#26322b"/>
    </linearGradient>
    <linearGradient id="mark" x1="300" y1="220" x2="724" y2="800" gradientUnits="userSpaceOnUse">
      <stop offset="0" stop-color="#f6d979"/>
      <stop offset="1" stop-color="#d89a44"/>
    </linearGradient>
  </defs>
  <rect width="1024" height="1024" rx="224" fill="url(#bg)"/>
  <path d="M282 690c67 47 173 59 251 31 78-28 106-88 63-137-21-24-55-44-102-61l-86-32c-57-21-85-52-85-93 0-52 42-95 111-116 86-27 204-11 294 40l-58 121c-67-38-140-50-190-34-29 9-45 25-45 44 0 23 22 41 66 58l88 33c82 30 125 78 125 142 0 61-42 111-116 139-100 39-252 25-371-35l55-100Z" fill="url(#mark)"/>
  <path d="M291 743h450" fill="none" stroke="#f7efe3" stroke-width="34" stroke-linecap="round" opacity=".9"/>
  <path d="M736 286c-40-29-87-50-139-61" fill="none" stroke="#f7efe3" stroke-width="28" stroke-linecap="round" opacity=".34"/>
</svg>
