<svg xmlns="http://www.w3.org/2000/svg" viewBox="0 0 1680 520" role="img" aria-labelledby="title desc">
  <title id="title">Shakespeare logo lockup</title>
  <desc id="desc">The Shakespeare logo mark beside a clean software wordmark.</desc>
  <defs>
    <linearGradient id="lockup-mint" x1="186" y1="248" x2="402" y2="432" gradientUnits="userSpaceOnUse">
      <stop offset="0" stop-color="#29c79f"/>
      <stop offset="1" stop-color="#5267ff"/>
    </linearGradient>
  </defs>

  <rect x="48" y="48" width="424" height="424" rx="96" fill="#f6f8f4"/>
  <path
    d="M336 112H222c-54 0-92 36-92 87 0 54 46 84 113 84h44"
    fill="none"
    stroke="#13201b"
    stroke-width="58"
    stroke-linecap="round"
    stroke-linejoin="round"
  />
  <path
    d="M193 408h114c54 0 92-36 92-87 0-54-46-84-113-84h-44"
    fill="none"
    stroke="url(#lockup-mint)"
    stroke-width="58"
    stroke-linecap="round"
    stroke-linejoin="round"
  />
  <path d="M357 126c0-18 14-32 32-32h16v29h-9c-8 0-14 6-14 14v8h23v47h-48v-66Zm63 0c0-18 14-32 32-32h16v29h-9c-8 0-14 6-14 14v8h23v47h-48v-66Z" fill="#5267ff"/>
  <path d="M174 394c0 18-14 32-32 32h-16v-29h9c8 0 14-6 14-14v-8h-23v-47h48v66Zm-63 0c0 18-14 32-32 32H63v-29h9c8 0 14-6 14-14v-8H63v-47h48v66Z" fill="#5267ff"/>
  <path d="M260 212l12 34 34 12-34 12-12 34-12-34-34-12 34-12 12-34Z" fill="#d59627"/>

  <text
    x="560"
    y="292"
    fill="#13201b"
    font-family="Inter, ui-sans-serif, system-ui, -apple-system, BlinkMacSystemFont, 'Segoe UI', sans-serif"
    font-size="146"
    font-weight="760"
    letter-spacing="0"
  >Shakespeare</text>
  <text
    x="568"
    y="370"
    fill="#66736d"
    font-family="Inter, ui-sans-serif, system-ui, -apple-system, BlinkMacSystemFont, 'Segoe UI', sans-serif"
    font-size="34"
    font-weight="720"
    letter-spacing="2"
  >PROMPT COMPILER</text>
</svg>
